HIERARCHY
ROOT Hips
{
 OFFSET 0.000000 0.000000 0.000000
 CHANNELS 6 Xposition Yposition Zposition Yrotation Xrotation Zrotation
 JOINT Chest
 {
  OFFSET 0.000000 9.585900 0.002600
  CHANNELS 3 Yrotation Xrotation Zrotation
  JOINT Chest2
  {
   OFFSET 0.000000 9.601200 -0.005300
   CHANNELS 3 Yrotation Xrotation Zrotation
   JOINT Chest3
   {
    OFFSET 0.000000 9.561800 0.000000
    CHANNELS 3 Yrotation Xrotation Zrotation
    JOINT Chest4
    {
     OFFSET 0.000000 9.552100 0.000000
     CHANNELS 3 Yrotation Xrotation Zrotation
     JOINT Neck
     {
      OFFSET 0.000000 14.453000 0.000000
      CHANNELS 3 Yrotation Xrotation Zrotation
      JOINT Head
      {
       OFFSET 0.000000 8.936500 -0.011300
       CHANNELS 3 Yrotation Xrotation Zrotation
       End Site
       {
        OFFSET 0.000000 17.073600 -0.006000
       }
      }
     }
     JOINT RightCollar
     {
      OFFSET -2.921100 9.558500 0.000000
      CHANNELS 3 Yrotation Xrotation Zrotation
      JOINT RightShoulder
      {
       OFFSET -13.519700 0.000000 0.000000
       CHANNELS 3 Yrotation Xrotation Zrotation
       JOINT RightElbow
       {
        OFFSET 0.000000 -29.696600 0.000000
        CHANNELS 3 Yrotation Xrotation Zrotation
        JOINT RightWrist
        {
         OFFSET 0.000000 -24.004700 0.000000
         CHANNELS 3 Yrotation Xrotation Zrotation
         End Site
         {
          OFFSET 0.000000 -17.728500 0.000000
         }
        }
       }
      }
     }
     JOINT LeftCollar
     {
      OFFSET 2.921100 9.558500 0.000000
      CHANNELS 3 Yrotation Xrotation Zrotation
      JOINT LeftShoulder
      {
       OFFSET 13.519700 0.000000 0.000000
       CHANNELS 3 Yrotation Xrotation Zrotation
       JOINT LeftElbow
       {
        OFFSET 0.000000 -29.696600 0.000000
        CHANNELS 3 Yrotation Xrotation Zrotation
        JOINT LeftWrist
        {
         OFFSET 0.000000 -24.004700 0.000000
         CHANNELS 3 Yrotation Xrotation Zrotation
         End Site
         {
          OFFSET 0.000000 -17.728500 0.000000
         }
        }
       }
      }
     }
    }
   }
  }
 }
 JOINT RightHip
 {
  OFFSET -7.771700 -0.012900 -0.001300
  CHANNELS 3 Yrotation Xrotation Zrotation
  JOINT RightKnee
  {
   OFFSET 0.000000 -40.869800 0.001200
   CHANNELS 3 Yrotation Xrotation Zrotation
   JOINT RightAnkle
   {
    OFFSET 0.000000 -39.717900 0.002100
    CHANNELS 3 Yrotation Xrotation Zrotation
    JOINT RightToe
    {
     OFFSET 0.000000 -4.965400 11.033500
     CHANNELS 3 Yrotation Xrotation Zrotation
     End Site
     {
      OFFSET 0.000000 -1.423100 5.872300
     }
    }
   }
  }
 }
 JOINT LeftHip
 {
  OFFSET 7.771700 -0.012900 -0.001300
  CHANNELS 3 Yrotation Xrotation Zrotation
  JOINT LeftKnee
  {
   OFFSET 0.000000 -40.869800 0.001200
   CHANNELS 3 Yrotation Xrotation Zrotation
   JOINT LeftAnkle
   {
    OFFSET 0.000000 -39.717900 0.002100
    CHANNELS 3 Yrotation Xrotation Zrotation
    JOINT LeftToe
    {
     OFFSET 0.000000 -4.965400 11.033500
     CHANNELS 3 Yrotation Xrotation Zrotation
     End Site
     {
      OFFSET 0.000000 -1.423100 5.872300
     }
    }
   }
  }
 }
}
MOTION
Frames: 7
Frame Time: 0.008333
0.000000 85.388000 0.000000 0.000000 -5.767877 0.000000 0.000000 11.653817 0.000000 0.000000 -5.885947 0.000000 0.000000 -0.000000 0.000000 0.000000 -0.000000 0.000000 0.000000 12.528835 0.000000 0.000000 0.711642 0.000000 0.000000 -0.000000 0.000000 0.000000 0.000000 -90.000000 0.000000 -2.309062 0.000000 0.000000 2.309062 0.000000 0.000000 -0.000000 0.000000 0.000000 -0.000000 90.000000 0.000000 -2.309062 0.000000 0.000000 2.309062 0.000000 0.000000 8.520406 0.000000 0.000000 1.905762 0.000000 -0.000000 -4.658285 0.000000 0.000000 -0.000000 0.000000 0.000000 8.520406 0.000000 0.000000 1.905762 0.000000 -0.000000 -4.658285 0.000000 0.000000 -0.000000 0.000000
-42.638044 51.530975 20.964984 178.492408 -25.103721 0.878825 -1.661085 13.846566 -0.191944 -0.146881 1.157693 0.045661 -0.209664 1.998670 0.076180 -1.446935 12.449262 0.347507 -2.041028 11.556057 -2.565094 -1.509494 -13.475483 -2.273765 2.541322 14.662974 8.471172 14.679809 -4.083455 -34.584486 142.972319 -47.718068 177.622113 -4.414120 -1.036650 3.275378 2.163505 12.421150 -10.582296 -26.645896 -1.320578 33.443785 -153.627806 -47.388468 -166.160499 18.234172 2.839150 6.027387 -9.075505 -58.146661 1.855049 -63.664113 82.097875 -72.620261 -3.659910 -5.905320 8.723765 0.307427 -0.652262 0.137511 7.382202 -55.537944 -7.341225 52.081320 85.001204 58.864906 -0.554448 -13.520723 -1.396981 0.185575 0.534471 0.085279
-42.641879 51.530590 20.964242 178.486135 -25.124364 0.874771 -1.669468 13.851952 -0.190159 -0.139916 1.165296 0.046166 -0.256589 1.958484 0.076780 -1.493537 12.434225 0.353153 -2.032604 11.594994 -2.546234 -1.546432 -13.463165 -2.231787 2.582159 14.685479 8.456890 14.392263 -4.214877 -34.578754 142.713977 -47.498126 177.702582 -4.603044 -1.127060 4.126372 2.174896 12.411218 -10.619151 -26.695066 -1.362021 33.531556 -153.542181 -47.327581 -166.269222 18.192417 2.679569 5.390790 -9.067659 -58.127247 1.853834 -63.654046 82.109006 -72.609204 -3.669690 -5.905563 8.730478 0.310809 -0.656780 0.134947 7.391780 -55.518804 -7.346337 52.135930 85.000682 58.930259 -0.550436 -13.520533 -1.396556 0.180691 0.531722 0.083688
-42.644712 51.530490 20.962736 178.474190 -25.152980 0.862664 -1.689720 13.850933 -0.183532 -0.142289 1.164887 0.046686 -0.268131 1.949443 0.076077 -1.521453 12.427541 0.355891 -2.005563 11.629255 -2.542910 -1.632151 -13.460060 -2.158668 2.624561 14.710910 8.444610 14.081981 -4.371436 -34.566480 142.473934 -47.277623 177.775337 -4.798559 -1.203304 4.948350 2.162853 12.381031 -10.646122 -26.741286 -1.401018 33.615937 -153.459223 -47.264745 -166.383521 18.156520 2.498938 4.722637 -9.058175 -58.094550 1.857134 -63.629029 82.109899 -72.577703 -3.657808 -5.908047 8.743163 0.297823 -0.659222 0.126410 7.384975 -55.495854 -7.324574 52.205092 85.009376 59.007764 -0.548704 -13.519739 -1.396876 0.183744 0.524660 0.083890
-42.649562 51.529186 20.963757 178.473387 -25.166996 0.854285 -1.751372 13.805643 -0.197407 -0.114013 1.195462 0.050617 -0.279018 1.937265 0.075996 -1.532827 12.428652 0.356922 -2.056852 11.637875 -2.501030 -1.646578 -13.440432 -2.137737 2.649794 14.729286 8.439234 13.775719 -4.522443 -34.553614 142.226988 -47.055043 177.859560 -5.000135 -1.273769 5.741617 2.134874 12.338277 -10.665921 -26.786059 -1.433413 33.697399 -153.388233 -47.197786 -166.495070 18.119840 2.296243 4.026911 -9.063152 -58.079396 1.863870 -63.616615 82.110771 -72.564647 -3.663594 -5.915181 8.747911 0.300863 -0.655388 0.126237 7.381336 -55.488555 -7.327914 52.317960 85.006854 59.128233 -0.536003 -13.511028 -1.395846 0.175082 0.515963 0.079425
-42.651016 51.527464 20.965704 178.438023 -25.176382 0.838362 -1.745080 13.784957 -0.177906 -0.137676 1.169946 0.048902 -0.260178 1.959565 0.078039 -1.537738 12.432668 0.358193 -2.122342 11.637339 -2.459311 -1.661509 -13.417299 -2.117677 2.631424 14.713309 8.435909 13.504300 -4.634739 -34.538150 141.948784 -46.832580 177.970505 -5.198150 -1.351049 6.503655 2.090730 12.282190 -10.682881 -26.828108 -1.459718 33.778316 -153.327251 -47.126059 -166.601450 18.080013 2.070711 3.312571 -9.073366 -58.064500 1.915398 -63.595172 82.103220 -72.543975 -3.635546 -5.949951 8.762350 0.273173 -0.624712 0.114486 7.373650 -55.485070 -7.284515 52.391454 85.007160 59.205743 -0.510307 -13.493395 -1.389014 0.152072 0.495180 0.066904
-42.652637 51.527176 20.964869 178.414230 -25.205118 0.818374 -1.753827 13.782566 -0.162379 -0.139362 1.168562 0.049290 -0.241829 1.975749 0.081093 -1.532267 12.439991 0.359006 -2.194498 11.623021 -2.422006 -1.699335 -13.397121 -2.083767 2.584415 14.678256 8.436178 13.250902 -4.737094 -34.520406 141.633896 -46.614933 178.106063 -5.382148 -1.445382 7.236176 2.018078 12.205334 -10.694253 -26.871714 -1.483745 33.861011 -153.270305 -47.047911 -166.706562 18.043322 1.829805 2.585178 -9.085991 -58.027468 1.956746 -63.529261 82.099656 -72.473040 -3.637971 -5.947549 8.760448 0.275086 -0.623221 0.115324 7.354263 -55.461188 -7.237252 52.473544 85.009647 59.293827 -0.504400 -13.499131 -1.387616 0.148377 0.494520 0.064094
